# xmcd
#
# Track frame offsets:
#	150
#	12663
#	27337
#	41392
#	58151
#	72051
#	88112
#	104976
#	120740
#	134964
#	150139
#	167237
#	183128
#	196137
#	210088
#	223543
#	237894
#	251917
#	267143
#	285135
#	297695
#
# Disc length: 4143 seconds
#
# Revision: 0
# Processed by: cddbd v1.5.2PL0 Copyright (c) Steve Scherf et al.
# Submitted via: EZCDAudioConverter 7.1.0.1
#
DISCID=37102d15
DTITLE=Nu Country Traxx Volume 239 US
DYEAR=2019
DGENRE=country
TTITLE0=Chris Janson - Good Vibes
TTITLE1=George Strait - Every Little Honky Tonk Bar
TTITLE2=Mitchell Tenpenny - Alcohol You Later
TTITLE3=Dierks Bentley - Living
TTITLE4=Jason Aldean - Rearview Town
TTITLE5=Kacey Musgraves - Rainbow
TTITLE6=Aaron Goodvin - Bars and Churches
TTITLE7=Zac Brown Band - Someone I Used To Know
TTITLE8=Kip Moore - The Bull
TTITLE9=Hardy - Rednecker
TTITLE10=Tim McGraw - Thought About You
TTITLE11=AJ McLean - Boy And A Man
TTITLE12=Hunter Hayes - Heartbreak
TTITLE13=King Calaway - World For Two
TTITLE14=Ryan Hurd - To A T
TTITLE15=Brooks and Dunn with Luke Combs - Brand New Man
TTITLE16=David Lee Murphy - No Zip Code
TTITLE17=Bailey James - Devil Won't Take Me Down
TTITLE18=Jeff Clayborn - Last Ones To Leave
TTITLE19=Lady Redneck - Duct Tape My Broken Heart
TTITLE20=Chris Henderson - I'll Be Your Mountain
EXTD=
EXTT0=
EXTT1=
EXTT2=
EXTT3=
EXTT4=
EXTT5=
EXTT6=
EXTT7=
EXTT8=
EXTT9=
EXTT10=
EXTT11=
EXTT12=
EXTT13=
EXTT14=
EXTT15=
EXTT16=
EXTT17=
EXTT18=
EXTT19=
EXTT20=
PLAYORDER=
